{"glyphs":{":":{"x_min":0,"x_max":315,"ha":315,"o":"m 157 308 q 135 308 121 325 q 108 342 108 371 q 108 400 121 417 q 134 433 157 433 q 180 433 193 417 q 206 400 206 371 q 206 342 193 325 q 180 308 157 308 z m 157 -5 q 135 -5 121 12 q 108 29 108 58 q 108 87 121 104 q 135 121 157 121 q 180 121 193 104 q 206 87 206 58 q 206 29 193 12 q 180 -5 157 -5 z"},"$":{"x_min":0,"x_max":556,"ha":556,"o":"m 292 293 l 292 39 q 352 43 383 73 q 414 103 414 157 q 414 203 383 238 q 351 273 292 293 z m 252 407 l 252 621 q 202 614 177 590 q 153 565 153 521 q 153 483 176 457 q 199 431 252 407 z m 77 9 l 77 184 l 131 184 l 131 163 q 131 116 161 85 q 192 55 252 42 l 252 310 q 163 341 122 385 q 80 430 80 493 q 80 567 125 611 q 169 654 252 661 l 252 733 l 292 733 l 292 661 q 325 658 354 646 q 384 633 412 610 l 412 653 l 463 653 l 463 492 l 412 492 l 412 505 q 412 546 380 577 q 349 608 292 619 l 292 391 q 400 352 444 303 q 488 255 488 180 q 488 101 435 52 q 383 3 292 -1 l 292 -104 l 252 -104 l 252 2 q 221 3 191 13 q 162 22 131 41 l 131 9 z"},"?":{"x_min":0,"x_max":444,"ha":444,"o":"m 331 227 q 311 195 283 179 q 255 163 219 163 q 168 163 136 194 q 104 225 104 273 q 104 305 120 335 q 136 366 171 401 q 182 412 203 432 q 302 528 302 574 q 302 606 281 625 q 260 644 223 644 q 184 644 161 620 q 138 596 137 555 l 60 555 q 60 613 104 648 q 147 683 220 683 q 296 683 336 649 q 377 616 377 553 q 377 511 355 473 q 333 435 258 366 l 250 359 q 167 283 167 249 q 167 229 179 217 q 191 205 211 205 q 232 205 247 218 q 262 231 276 262 z m 205 -5 q 182 -5 169 10 q 156 25 156 51 q 156 78 169 93 q 182 108 205 108 q 228 108 241 93 q 254 78 254 51 q 254 25 241 10 q 228 -5 205 -5 z"},"<":{"x_min":0,"x_max":833,"ha":833,"o":"m 704 559 l 704 497 l 216 298 l 704 100 l 704 37 l 129 273 l 129 323 z"},"'":{"x_min":0,"x_max":170,"ha":170,"o":"m 93 422 l 77 422 l 45 645 q 44 649 44 653 q 44 657 44 664 q 44 688 54 701 q 65 714 85 714 q 105 714 116 701 q 127 688 127 665 q 127 661 125 648 q 125 646 125 645 z"},"=":{"x_min":0,"x_max":833,"ha":833,"o":"m 124 233 l 709 233 l 709 176 l 124 176 z m 124 420 l 709 420 l 709 363 l 124 363 z"},"a":{"x_min":0,"x_max":542,"ha":542,"o":"m 352 134 l 352 176 q 352 213 318 241 q 283 270 237 270 q 188 270 155 238 q 123 205 123 155 q 123 104 155 72 q 188 39 237 39 q 283 39 318 68 q 352 97 352 134 z m 352 59 q 325 25 289 8 q 253 -9 208 -9 q 132 -9 85 35 q 38 79 38 150 q 38 223 87 270 q 135 317 212 317 q 258 317 292 302 q 326 287 352 255 l 352 315 q 352 382 327 412 q 302 442 247 442 q 209 442 177 427 q 146 412 120 382 l 84 426 q 117 452 162 465 q 207 478 261 478 q 354 478 392 438 q 431 398 431 299 l 431 39 l 513 39 l 513 0 l 352 0 z"},"L":{"x_min":0,"x_max":600,"ha":600,"o":"m 60 0 l 60 44 l 153 44 l 153 630 l 60 630 l 60 674 l 331 674 l 331 630 l 238 630 l 238 56 l 531 56 l 531 160 l 595 160 l 595 0 z"},"3":{"x_min":0,"x_max":556,"ha":556,"o":"m 126 160 q 133 96 164 63 q 196 30 251 30 q 315 30 351 70 q 386 110 386 182 q 386 255 348 292 q 309 329 234 329 l 217 329 l 217 371 l 232 371 q 303 371 340 405 q 377 439 377 504 q 377 567 347 599 q 318 632 260 632 q 206 632 179 602 q 152 571 152 510 l 68 510 q 76 593 125 632 q 174 671 270 671 q 361 671 414 628 q 468 585 468 512 q 468 450 434 410 q 399 370 332 354 q 408 336 445 293 q 482 250 482 179 q 482 91 422 41 q 362 -9 255 -9 q 156 -9 100 35 q 44 79 38 160 z"},";":{"x_min":0,"x_max":315,"ha":315,"o":"m 154 308 q 131 308 118 325 q 105 342 105 371 q 105 400 118 417 q 131 433 154 433 q 177 433 190 417 q 203 400 203 371 q 203 342 190 325 q 176 308 154 308 z m 96 -134 l 108 111 l 203 111 l 137 -134 z"},"J":{"x_min":0,"x_max":495,"ha":495,"o":"m 275 630 l 187 630 l 187 674 l 450 674 l 450 630 l 362 630 l 362 217 q 362 138 353 103 q 344 68 323 44 q 300 18 262 5 q 224 -9 174 -9 q 91 -9 44 31 q -3 70 -6 141 l 86 153 q 86 93 108 64 q 131 35 176 35 q 230 35 252 73 q 275 110 275 206 z"},"V":{"x_min":0,"x_max":734,"ha":734,"o":"m 345 -5 l 62 630 l -7 630 l -7 674 l 248 674 l 248 630 l 156 630 l 391 89 l 618 630 l 528 630 l 528 674 l 731 674 l 731 630 l 670 630 l 405 -5 z"},"\"":{"x_min":0,"x_max":331,"ha":331,"o":"m 253 422 l 238 422 l 206 645 q 206 646 206 648 q 204 659 204 664 q 204 688 215 701 q 226 714 246 714 q 266 714 276 701 q 287 688 287 665 q 287 658 287 654 q 287 649 286 645 z m 93 422 l 77 422 l 46 645 q 45 653 44 658 q 44 662 44 665 q 44 688 55 701 q 65 714 85 714 q 105 714 116 701 q 127 688 127 665 q 127 661 125 648 q 125 646 125 645 z"},"7":{"x_min":0,"x_max":556,"ha":556,"o":"m 132 0 l 404 598 l 114 598 l 114 523 l 58 523 l 58 662 l 491 662 l 227 0 z"},"S":{"x_min":0,"x_max":641,"ha":641,"o":"m 79 0 l 79 183 l 135 183 l 135 161 q 135 104 188 68 q 241 33 329 33 q 402 33 445 66 q 488 98 488 153 q 488 197 460 228 q 432 258 369 282 q 345 292 301 308 q 180 353 149 376 q 111 404 94 435 q 77 465 77 505 q 77 587 135 635 q 194 683 294 683 q 347 683 390 670 q 434 656 472 629 l 472 674 l 528 674 l 528 505 l 472 505 l 472 519 q 472 567 419 604 q 367 640 293 640 q 232 640 196 612 q 160 584 160 538 q 160 500 185 474 q 209 448 279 420 q 317 404 383 381 q 448 357 466 346 q 521 312 545 273 q 569 235 569 183 q 569 94 503 43 q 437 -9 322 -9 q 270 -9 223 1 q 176 12 135 33 l 135 0 z"},"}":{"x_min":0,"x_max":500,"ha":500,"o":"m 87 740 l 92 740 q 197 740 237 704 q 277 668 277 571 l 277 467 q 277 390 305 361 q 333 333 414 325 l 414 296 q 334 290 306 260 q 277 231 277 154 l 277 50 q 277 -47 237 -83 q 197 -119 92 -119 l 87 -119 l 87 -94 q 157 -93 182 -68 q 207 -42 207 34 l 207 104 q 207 214 237 255 q 267 295 347 310 q 267 325 237 365 q 207 406 207 516 l 207 586 q 207 662 182 688 q 156 714 87 715 z"},"Z":{"x_min":0,"x_max":685,"ha":685,"o":"m 55 0 l 55 11 l 471 618 l 123 618 l 123 538 l 67 538 l 67 674 l 603 674 l 603 660 l 185 56 l 570 56 l 570 150 l 626 150 l 626 0 z"},"x":{"x_min":0,"x_max":537,"ha":537,"o":"m 292 0 l 292 39 l 363 39 l 255 187 l 147 39 l 220 39 l 220 0 l 12 0 l 12 39 l 89 39 l 228 224 l 77 428 l 12 428 l 12 468 l 250 468 l 250 428 l 173 428 l 276 285 l 382 428 l 306 428 l 306 468 l 506 468 l 506 428 l 440 428 l 304 248 l 460 39 l 532 39 l 532 0 z"},")":{"x_min":0,"x_max":352,"ha":352,"o":"m 46 733 q 136 698 186 581 q 236 463 236 282 q 236 102 186 -16 q 137 -133 46 -169 l 46 -135 q 98 -98 122 1 q 146 100 146 282 q 146 464 122 563 q 98 662 46 699 z"},"&":{"x_min":0,"x_max":711,"ha":711,"o":"m 299 413 q 337 435 357 466 q 377 497 377 535 q 377 572 356 596 q 336 619 304 619 q 271 619 251 599 q 230 578 230 547 q 230 525 247 493 q 264 460 299 413 z m 447 84 l 256 340 q 199 308 173 272 q 146 236 146 191 q 146 123 194 81 q 241 38 318 38 q 354 38 386 49 q 418 61 447 84 z m 472 52 q 434 21 384 4 q 334 -12 277 -12 q 181 -12 124 37 q 66 86 66 166 q 66 228 106 279 q 147 331 228 373 q 188 421 170 458 q 152 495 152 527 q 152 582 194 620 q 237 657 299 657 q 361 657 400 623 q 438 588 438 534 q 438 485 411 449 q 383 413 325 385 l 503 146 q 530 187 545 239 q 560 290 562 355 l 638 355 q 633 288 605 227 q 578 165 529 111 l 583 39 l 676 39 l 676 0 l 510 0 z"},"_":{"x_min":0,"x_max":500,"ha":500,"o":"m 0 -178 l 500 -178 l 500 -236 l 0 -236 z"},"v":{"x_min":0,"x_max":530,"ha":530,"o":"m 234 -5 l 61 428 l 0 428 l 0 468 l 222 468 l 222 428 l 148 428 l 280 87 l 407 428 l 332 428 l 332 468 l 521 468 l 521 428 l 459 428 l 289 -5 z"},"O":{"x_min":0,"x_max":824,"ha":824,"o":"m 408 32 q 532 32 600 113 q 669 193 669 339 q 669 482 602 562 q 535 642 415 642 q 291 642 222 561 q 154 480 154 334 q 154 192 221 112 q 289 32 408 32 z m 412 -9 q 335 -9 273 13 q 210 35 161 79 q 108 125 81 191 q 53 256 53 337 q 53 410 76 471 q 99 533 144 580 q 193 631 260 657 q 328 683 412 683 q 488 683 550 661 q 612 640 662 596 q 716 548 743 483 q 771 417 771 337 q 771 263 748 202 q 726 141 681 94 q 632 42 565 17 q 498 -9 412 -9 z"},"(":{"x_min":0,"x_max":352,"ha":352,"o":"m 306 -169 q 215 -134 165 -16 q 115 102 115 282 q 115 462 165 580 q 215 698 306 733 l 306 699 q 254 662 230 564 q 206 465 206 282 q 206 100 230 1 q 253 -98 306 -135 z"},"C":{"x_min":0,"x_max":748,"ha":748,"o":"m 720 108 q 663 50 588 21 q 514 -9 424 -9 q 256 -9 155 87 q 53 182 53 340 q 53 420 82 486 q 111 551 168 600 q 216 641 279 662 q 341 683 414 683 q 481 683 535 665 q 588 647 633 609 l 633 673 l 689 673 l 689 491 l 633 491 q 625 559 571 599 q 516 639 430 639 q 301 639 227 560 q 154 481 154 342 q 154 202 230 117 q 307 32 432 32 q 506 32 567 60 q 628 88 686 149 z"},"W":{"x_min":0,"x_max":958,"ha":958,"o":"m 256 -5 l 62 630 l -5 630 l -5 674 l 244 674 l 244 630 l 151 630 l 303 117 l 476 674 l 518 674 l 687 112 l 841 630 l 756 630 l 756 674 l 958 674 l 958 630 l 894 630 l 698 -5 l 638 -5 l 480 520 l 315 -5 z"},"A":{"x_min":0,"x_max":704,"ha":704,"o":"m 189 238 l 467 238 l 324 561 z m -10 0 l -10 44 l 54 44 l 326 678 l 364 678 l 649 44 l 722 44 l 722 0 l 475 0 l 475 44 l 556 44 l 487 194 l 173 194 l 109 44 l 189 44 l 189 0 z"},"f":{"x_min":0,"x_max":317,"ha":317,"o":"m 42 0 l 42 39 l 116 39 l 116 428 l 42 428 l 42 468 l 116 468 l 116 534 q 116 607 149 645 q 181 683 244 683 q 275 683 298 674 q 322 665 336 648 l 293 597 q 282 623 269 635 q 256 646 238 646 q 215 646 205 622 q 195 598 195 543 l 195 468 l 306 468 l 306 428 l 195 428 l 195 39 l 284 39 l 284 0 z"},"Q":{"x_min":0,"x_max":824,"ha":824,"o":"m 581 96 q 624 131 646 194 q 669 256 669 339 q 669 482 602 562 q 535 642 415 642 q 291 642 222 561 q 154 480 154 334 q 154 191 222 112 q 290 32 410 32 q 440 32 467 37 q 494 42 520 53 l 430 140 l 481 193 z m 634 54 l 716 -28 l 667 -81 l 562 16 q 525 3 488 -3 q 451 -9 412 -9 q 250 -9 152 86 q 53 182 53 337 q 53 410 76 471 q 99 533 144 580 q 193 631 260 657 q 328 683 412 683 q 488 683 550 661 q 612 640 662 596 q 716 548 743 483 q 771 417 771 337 q 771 247 736 175 q 702 104 634 54 z"},"w":{"x_min":0,"x_max":781,"ha":781,"o":"m 224 -5 l 63 428 l -8 428 l -8 468 l 225 468 l 225 428 l 146 428 l 263 94 l 379 475 l 420 475 l 547 94 l 662 428 l 577 428 l 577 468 l 778 468 l 778 428 l 708 428 l 559 -5 l 506 -5 l 387 343 l 273 -5 z"},"-":{"x_min":0,"x_max":370,"ha":370,"o":"m 62 205 l 62 274 l 308 274 l 308 205 z"},"E":{"x_min":0,"x_max":694,"ha":694,"o":"m 60 0 l 60 44 l 153 44 l 153 630 l 60 630 l 60 674 l 612 674 l 612 537 l 558 537 l 558 618 l 238 618 l 238 379 l 501 379 l 501 456 l 556 456 l 556 259 l 501 259 l 501 335 l 238 335 l 238 56 l 565 56 l 565 141 l 620 141 l 620 0 z"},"s":{"x_min":0,"x_max":449,"ha":449,"o":"m 99 48 l 99 0 l 53 0 l 53 136 l 99 136 l 99 130 q 99 90 137 60 q 176 30 229 30 q 272 30 297 52 q 322 74 322 112 q 322 162 222 194 q 194 203 178 208 q 109 232 82 261 q 54 291 54 338 q 54 400 96 439 q 137 477 206 477 q 241 477 271 466 q 300 454 328 430 l 328 468 l 374 468 l 374 352 l 329 352 l 329 353 q 329 389 295 413 q 261 437 209 437 q 170 437 147 417 q 124 398 124 365 q 124 314 237 280 q 248 276 253 275 q 336 251 366 220 q 397 190 397 137 q 397 71 353 31 q 309 -9 235 -9 q 193 -9 160 5 q 126 19 99 48 z"},">":{"x_min":0,"x_max":833,"ha":833,"o":"m 129 559 l 704 323 l 704 273 l 129 37 l 129 100 l 617 298 l 129 497 z"},"l":{"x_min":0,"x_max":301,"ha":301,"o":"m 190 39 l 282 39 l 282 0 l 17 0 l 17 39 l 111 39 l 111 634 l 30 634 l 30 674 l 190 683 z"},"8":{"x_min":0,"x_max":556,"ha":556,"o":"m 277 28 q 336 28 370 69 q 405 111 405 182 q 405 253 370 295 q 336 336 277 336 q 218 336 183 295 q 149 253 149 182 q 149 111 183 69 q 218 28 277 28 z m 278 378 q 333 378 365 413 q 398 447 398 505 q 398 563 365 598 q 333 633 278 633 q 223 633 190 599 q 158 564 158 505 q 158 447 191 412 q 223 378 278 378 z m 193 360 q 133 382 104 417 q 74 453 74 504 q 74 582 129 627 q 183 672 278 672 q 372 672 427 627 q 481 582 481 504 q 481 453 451 417 q 422 382 362 360 q 427 343 463 294 q 500 246 500 178 q 500 90 441 41 q 382 -9 278 -9 q 173 -9 114 41 q 55 91 55 178 q 55 246 92 294 q 128 343 193 360 z"},"\\":{"x_min":0,"x_max":287,"ha":287,"o":"m -12 683 l 47 683 l 330 -93 l 270 -93 z"},"e":{"x_min":0,"x_max":535,"ha":535,"o":"m 138 263 l 407 263 l 407 273 q 407 353 372 396 q 337 439 273 439 q 212 439 177 393 q 142 347 138 263 z m 496 88 q 460 38 409 15 q 359 -9 287 -9 q 176 -9 110 57 q 44 123 44 234 q 44 343 108 410 q 172 477 276 477 q 376 477 434 415 q 492 353 492 244 l 492 226 l 137 226 l 137 219 q 137 132 184 80 q 230 28 306 28 q 354 28 393 51 q 433 73 460 116 z"},"b":{"x_min":0,"x_max":567,"ha":567,"o":"m 162 256 l 162 211 q 162 126 197 81 q 232 35 298 35 q 364 35 398 86 q 432 136 432 234 q 432 332 398 382 q 364 432 298 432 q 232 432 197 386 q 162 341 162 256 z m 83 634 l 8 634 l 8 674 l 162 683 l 162 389 q 188 433 227 455 q 267 477 321 477 q 411 477 467 409 q 523 341 523 232 q 523 125 467 58 q 410 -9 321 -9 q 269 -9 227 11 q 186 32 154 72 l 122 0 l 83 0 z"},"%":{"x_min":0,"x_max":799,"ha":799,"o":"m 192 -33 l 562 694 l 606 694 l 236 -33 z m 184 366 q 223 366 248 404 q 272 441 272 502 q 272 562 247 599 q 223 636 184 636 q 145 636 121 599 q 96 562 96 502 q 96 441 121 404 q 145 366 184 366 z m 184 341 q 115 341 72 385 q 28 430 28 501 q 28 572 72 616 q 115 661 184 661 q 252 661 296 616 q 340 571 340 501 q 340 430 296 385 q 253 341 184 341 z m 614 0 q 545 0 502 45 q 458 90 458 161 q 458 231 501 276 q 545 320 614 320 q 683 320 726 275 q 770 231 770 161 q 770 90 726 45 q 683 0 614 0 z m 614 25 q 653 25 677 62 q 702 99 702 160 q 702 220 677 258 q 653 295 614 295 q 575 295 551 258 q 526 220 526 160 q 526 100 550 62 q 574 25 613 25 z"},"m":{"x_min":0,"x_max":878,"ha":878,"o":"m 35 0 l 35 39 l 116 39 l 116 428 l 35 428 l 35 468 l 195 468 l 195 398 q 223 437 260 457 q 296 477 340 477 q 391 477 425 455 q 459 433 476 389 q 504 432 542 454 q 581 477 627 477 q 702 477 736 436 q 770 396 770 306 l 770 39 l 851 39 l 851 0 l 617 0 l 617 39 l 691 39 l 691 288 q 691 363 671 394 q 651 426 606 426 q 546 426 514 383 q 482 341 482 262 l 482 39 l 558 39 l 558 0 l 330 0 l 330 39 l 404 39 l 404 288 q 404 363 384 394 q 364 426 319 426 q 260 426 227 383 q 195 341 195 262 l 195 39 l 270 39 l 270 0 z"},"#":{"x_min":0,"x_max":769,"ha":769,"o":"m 342 424 l 293 284 l 434 284 l 484 424 z m 380 711 l 445 711 l 363 481 l 503 481 l 585 711 l 649 711 l 568 481 l 718 481 l 698 424 l 547 424 l 498 284 l 660 284 l 639 228 l 478 228 l 397 -1 l 332 -1 l 413 228 l 273 228 l 192 -1 l 128 -1 l 209 228 l 51 228 l 72 284 l 229 284 l 278 424 l 108 424 l 129 481 l 299 481 z"},",":{"x_min":0,"x_max":278,"ha":278,"o":"m 82 -134 l 95 111 l 190 111 l 124 -134 z"},"n":{"x_min":0,"x_max":611,"ha":611,"o":"m 35 0 l 35 39 l 116 39 l 116 428 l 35 428 l 35 468 l 195 468 l 195 398 q 222 438 261 457 q 301 477 353 477 q 432 477 468 437 q 503 396 503 306 l 503 39 l 584 39 l 584 0 l 343 0 l 343 39 l 424 39 l 424 288 q 424 367 402 397 q 380 427 327 427 q 262 427 228 385 q 195 344 195 262 l 195 39 l 276 39 l 276 0 z"},"h":{"x_min":0,"x_max":606,"ha":606,"o":"m 30 0 l 30 39 l 111 39 l 111 634 l 30 634 l 30 674 l 190 683 l 190 398 q 217 438 256 457 q 296 477 348 477 q 427 477 463 437 q 498 396 498 306 l 498 39 l 579 39 l 579 0 l 338 0 l 338 39 l 419 39 l 419 288 q 419 367 397 397 q 375 427 322 427 q 257 427 223 385 q 190 344 190 262 l 190 39 l 271 39 l 271 0 z"},"z":{"x_min":0,"x_max":500,"ha":500,"o":"m 40 0 l 40 14 l 340 426 l 115 426 l 115 331 l 59 331 l 59 468 l 450 468 l 450 449 l 153 42 l 402 42 l 402 135 l 458 135 l 458 0 z"},"B":{"x_min":0,"x_max":662,"ha":662,"o":"m 238 44 l 349 44 q 438 44 484 80 q 529 116 529 187 q 529 261 482 299 q 435 337 343 337 l 238 337 z m 238 381 l 325 381 q 416 381 456 411 q 495 440 495 508 q 495 572 457 601 q 418 630 331 630 l 238 630 z m 60 0 l 60 44 l 153 44 l 153 630 l 60 630 l 60 674 l 365 674 q 470 674 529 632 q 587 589 587 514 q 587 452 548 413 q 510 374 435 360 q 523 350 574 303 q 624 257 624 185 q 624 103 562 52 q 500 0 400 0 z"},"K":{"x_min":0,"x_max":725,"ha":725,"o":"m 60 0 l 60 44 l 153 44 l 153 630 l 60 630 l 60 674 l 326 674 l 326 630 l 238 630 l 238 303 l 572 630 l 496 630 l 496 674 l 718 674 l 718 630 l 641 630 l 398 395 l 664 44 l 733 44 l 733 0 l 474 0 l 474 44 l 558 44 l 338 336 l 238 238 l 238 44 l 326 44 l 326 0 z"},"R":{"x_min":0,"x_max":683,"ha":683,"o":"m 239 342 q 260 340 276 340 q 292 339 302 339 q 391 339 437 377 q 484 416 484 489 q 484 562 436 596 q 387 630 283 630 l 239 630 z m 60 0 l 60 44 l 153 44 l 153 630 l 60 630 l 60 674 l 299 674 q 365 674 411 667 q 457 660 483 646 q 528 622 553 581 q 578 539 578 488 q 578 426 538 379 q 498 333 429 316 l 545 136 q 579 83 603 63 q 626 43 653 43 q 658 43 660 43 q 663 43 665 44 l 665 0 l 620 0 q 565 0 532 22 q 499 43 452 116 l 369 245 q 345 282 333 290 q 321 298 302 298 l 239 298 l 239 44 l 327 44 l 327 0 z"},"T":{"x_min":0,"x_max":632,"ha":632,"o":"m 180 0 l 180 44 l 273 44 l 273 618 l 65 618 l 65 532 l 9 532 l 9 674 l 622 674 l 622 532 l 566 532 l 566 618 l 358 618 l 358 44 l 451 44 l 451 0 z"},"P":{"x_min":0,"x_max":623,"ha":623,"o":"m 238 319 q 250 316 266 314 q 282 313 306 313 q 405 313 451 351 q 496 390 496 473 q 496 553 455 592 q 414 630 327 630 l 238 630 z m 60 0 l 60 44 l 153 44 l 153 630 l 60 630 l 60 674 l 303 674 q 389 674 430 666 q 470 659 500 641 q 543 615 567 571 q 590 527 590 470 q 590 375 520 322 q 449 270 320 270 q 305 270 285 271 q 265 272 238 275 l 238 44 l 331 44 l 331 0 z"},"|":{"x_min":0,"x_max":500,"ha":500,"o":"m 219 764 l 281 764 l 281 -236 l 219 -236 z"},"t":{"x_min":0,"x_max":324,"ha":324,"o":"m 97 426 l 20 426 l 20 468 l 97 468 l 97 594 l 175 640 l 175 468 l 295 468 l 295 426 l 175 426 l 175 112 q 175 65 184 47 q 193 30 216 30 q 234 30 248 43 q 261 57 274 87 l 313 49 q 295 21 267 6 q 238 -9 205 -9 q 144 -9 121 22 q 97 53 97 160 z"},"M":{"x_min":0,"x_max":1050,"ha":1050,"o":"m 56 0 l 56 44 l 144 44 l 144 630 l 56 630 l 56 674 l 228 674 l 517 149 l 816 674 l 984 674 l 984 630 l 897 630 l 897 44 l 977 44 l 977 0 l 718 0 l 718 44 l 811 44 l 811 569 l 513 49 l 479 49 l 192 569 l 192 44 l 280 44 l 280 0 z"},"g":{"x_min":0,"x_max":595,"ha":595,"o":"m 405 211 l 405 256 q 405 341 370 386 q 334 432 269 432 q 203 432 169 382 q 135 332 135 234 q 135 136 169 86 q 203 35 269 35 q 334 35 370 81 q 405 126 405 211 z m 484 31 l 484 13 q 484 -51 475 -84 q 467 -116 447 -143 q 417 -183 369 -203 q 320 -223 254 -223 q 194 -223 150 -204 q 106 -185 79 -146 l 134 -103 q 162 -146 197 -166 q 231 -187 274 -187 q 347 -187 376 -141 q 405 -95 405 41 l 405 79 q 379 35 340 13 q 300 -9 246 -9 q 155 -9 99 56 q 44 121 44 228 q 44 341 100 409 q 155 477 246 477 q 299 477 339 455 q 379 433 405 389 l 405 468 l 567 468 l 567 428 l 484 428 z"},"j":{"x_min":0,"x_max":271,"ha":271,"o":"m 3 -131 q 12 -158 25 -171 q 39 -184 57 -184 q 84 -184 95 -154 q 106 -124 106 -36 l 106 12 l 106 428 l 27 428 l 27 468 l 185 468 l 185 -14 q 185 -125 156 -172 q 126 -220 60 -220 q 30 -220 6 -208 q -18 -195 -37 -170 z m 96 633 q 96 652 111 668 q 126 683 145 683 q 165 683 180 668 q 195 653 195 633 q 195 612 180 598 q 166 584 145 584 q 125 584 110 598 q 96 613 96 633 z"},"i":{"x_min":0,"x_max":308,"ha":308,"o":"m 108 633 q 108 652 123 668 q 138 683 157 683 q 177 683 192 668 q 207 653 207 633 q 207 612 193 598 q 178 584 157 584 q 137 584 122 598 q 108 613 108 633 z m 25 0 l 25 39 l 118 39 l 118 428 l 25 428 l 25 468 l 197 468 l 197 39 l 289 39 l 289 0 z"},"y":{"x_min":0,"x_max":532,"ha":532,"o":"m 86 -213 l 86 -174 l 166 -174 l 240 -3 l 59 428 l 4 428 l 4 468 l 225 468 l 225 428 l 150 428 l 285 87 l 419 428 l 343 428 l 343 468 l 528 468 l 528 428 l 470 428 l 225 -174 l 300 -174 l 300 -213 z"},"@":{"x_min":0,"x_max":986,"ha":986,"o":"m 581 164 q 551 112 513 87 q 476 61 430 61 q 369 61 332 106 q 295 151 295 225 q 295 278 319 331 q 343 383 386 425 q 418 456 457 474 q 495 491 532 491 q 575 491 602 467 q 629 443 640 396 l 666 484 l 736 484 l 653 186 q 653 185 652 184 q 644 155 644 133 q 644 110 656 96 q 669 83 690 83 q 707 83 729 92 q 750 100 770 115 q 830 159 861 228 q 893 297 893 382 q 893 450 869 505 q 844 560 794 604 q 750 643 688 664 q 627 685 558 685 q 467 685 391 656 q 316 628 257 571 q 193 509 161 427 q 128 346 128 247 q 128 162 156 98 q 184 35 244 -16 q 300 -63 372 -88 q 443 -112 528 -112 q 607 -112 683 -86 q 758 -61 827 -11 l 842 -29 q 770 -83 689 -110 q 608 -137 522 -137 q 431 -137 355 -115 q 279 -92 221 -47 q 147 8 109 87 q 71 166 71 262 q 71 362 113 448 q 155 535 235 601 q 299 655 377 682 q 455 709 545 709 q 714 709 815 618 q 916 526 916 374 q 916 297 888 229 q 859 161 808 114 q 780 88 748 75 q 715 61 682 61 q 635 61 609 87 q 584 112 581 164 z m 536 471 q 510 471 488 456 q 466 441 443 407 q 408 354 387 293 q 366 231 366 183 q 366 138 386 111 q 406 85 439 85 q 471 85 500 107 q 530 128 557 172 q 585 218 602 271 q 618 324 618 367 q 618 413 595 442 q 572 471 536 471 z"},".":{"x_min":0,"x_max":278,"ha":278,"o":"m 139 -5 q 117 -5 103 12 q 90 29 90 58 q 90 87 103 104 q 117 121 139 121 q 162 121 175 104 q 188 87 188 58 q 188 29 175 12 q 162 -5 139 -5 z"},"p":{"x_min":0,"x_max":595,"ha":595,"o":"m 190 256 l 190 211 q 190 126 225 81 q 260 35 326 35 q 392 35 425 86 q 459 136 459 234 q 459 332 425 382 q 392 432 326 432 q 260 432 225 386 q 190 341 190 256 z m 111 428 l 28 428 l 28 468 l 190 468 l 190 389 q 215 433 255 455 q 295 477 349 477 q 439 477 495 409 q 551 341 551 232 q 551 125 495 58 q 438 -9 349 -9 q 295 -9 255 13 q 215 35 190 79 l 190 -174 l 278 -174 l 278 -213 l 23 -213 l 23 -174 l 111 -174 z"},"X":{"x_min":0,"x_max":757,"ha":757,"o":"m 14 0 l 14 44 l 96 44 l 331 334 l 107 630 l 27 630 l 27 674 l 298 674 l 298 630 l 208 630 l 385 397 l 572 630 l 479 630 l 479 674 l 711 674 l 711 630 l 634 630 l 414 359 l 653 44 l 745 44 l 745 0 l 472 0 l 472 44 l 553 44 l 361 293 l 160 44 l 232 44 l 232 0 z"},"*":{"x_min":0,"x_max":426,"ha":426,"o":"m 211 374 l 174 468 l 79 455 l 138 531 l 78 607 l 175 591 l 212 683 l 249 589 l 346 612 l 282 526 l 340 448 l 244 465 z"},"Y":{"x_min":0,"x_max":650,"ha":650,"o":"m 194 0 l 194 44 l 282 44 l 282 235 l 58 630 l -20 630 l -20 674 l 248 674 l 248 630 l 153 630 l 342 294 l 529 630 l 444 630 l 444 674 l 656 674 l 656 630 l 587 630 l 368 249 l 368 44 l 456 44 l 456 0 z"},"c":{"x_min":0,"x_max":498,"ha":498,"o":"m 450 53 q 418 21 378 6 q 337 -9 284 -9 q 174 -9 109 58 q 44 125 44 236 q 44 343 108 410 q 171 477 273 477 q 312 477 344 465 q 376 454 404 430 l 404 472 l 450 472 l 450 327 l 408 327 q 401 381 369 411 q 337 441 286 441 q 218 441 177 384 q 137 327 137 230 q 137 135 180 80 q 224 25 297 25 q 321 25 344 31 q 366 37 384 49 q 394 55 403 63 q 413 72 423 84 z"},"!":{"x_min":0,"x_max":338,"ha":338,"o":"m 169 -5 q 146 -5 133 10 q 119 25 119 51 q 119 78 133 93 q 146 108 169 108 q 192 108 205 93 q 218 78 218 51 q 218 25 205 10 q 192 -5 169 -5 z m 150 171 l 117 674 l 220 674 l 187 171 z"},"/":{"x_min":0,"x_max":287,"ha":287,"o":"m -42 -93 l 241 683 l 300 683 l 18 -93 z"},"[":{"x_min":0,"x_max":352,"ha":352,"o":"m 134 -159 l 134 723 l 302 723 l 302 683 l 216 683 l 216 -119 l 302 -119 l 302 -159 z"},"6":{"x_min":0,"x_max":556,"ha":556,"o":"m 281 389 q 224 389 187 339 q 151 290 151 209 q 151 128 187 79 q 223 30 281 30 q 338 30 374 79 q 410 128 410 209 q 410 290 374 339 q 338 389 281 389 z m 150 353 q 176 392 215 411 q 253 431 305 431 q 393 431 448 374 q 504 316 504 225 q 504 122 441 56 q 378 -10 279 -10 q 172 -10 113 72 q 53 154 53 301 q 53 476 122 573 q 190 671 312 671 q 387 671 431 638 q 475 605 475 549 l 475 547 l 395 547 l 395 549 q 395 586 370 608 q 344 631 303 631 q 229 631 191 562 q 153 493 150 353 z"},"r":{"x_min":0,"x_max":384,"ha":384,"o":"m 35 0 l 35 39 l 119 39 l 119 428 l 35 428 l 35 468 l 197 468 l 197 389 q 222 431 252 454 q 281 477 309 477 q 336 477 358 462 q 379 447 393 418 l 337 372 q 319 398 306 407 q 293 417 279 417 q 243 417 220 375 q 197 333 197 264 l 197 39 l 281 39 l 281 0 z"},"2":{"x_min":0,"x_max":556,"ha":556,"o":"m 37 0 l 37 11 q 188 165 243 230 q 298 296 326 347 q 346 384 356 422 q 366 459 366 497 q 366 560 335 596 q 304 632 251 632 q 194 632 160 592 q 127 551 124 478 l 39 478 q 46 573 103 622 q 160 672 261 672 q 353 672 409 624 q 465 576 465 498 q 465 448 443 402 q 422 356 355 278 q 336 255 284 201 q 233 147 159 72 l 421 72 l 421 144 l 477 144 l 477 0 z"},"{":{"x_min":0,"x_max":500,"ha":500,"o":"m 413 740 l 413 715 q 344 714 318 688 q 293 662 293 586 l 293 516 q 293 406 263 365 q 233 325 153 310 q 233 295 263 255 q 293 214 293 104 l 293 34 q 293 -42 318 -68 q 343 -93 413 -94 l 413 -119 l 408 -119 q 302 -119 263 -83 q 223 -47 223 50 l 223 154 q 223 231 194 260 q 166 290 86 296 l 86 325 q 167 333 195 361 q 223 390 223 467 l 223 571 q 223 668 263 704 q 302 740 408 740 z"},"9":{"x_min":0,"x_max":556,"ha":556,"o":"m 270 281 q 327 281 362 329 q 398 377 398 456 q 398 535 362 583 q 327 631 270 631 q 213 631 178 583 q 143 535 143 456 q 143 377 178 329 q 213 281 270 281 z m 397 308 q 370 274 332 256 q 293 239 245 239 q 157 239 102 296 q 48 353 48 446 q 48 546 109 609 q 170 671 269 671 q 381 671 439 597 q 497 523 497 382 q 497 195 429 93 q 360 -9 235 -9 q 148 -9 100 30 q 51 68 49 139 l 129 139 q 132 86 162 58 q 191 30 245 30 q 318 30 356 99 q 394 169 397 308 z"}," ":{"x_min":0,"x_max":278,"ha":278,"o":""},"I":{"x_min":0,"x_max":391,"ha":391,"o":"m 238 44 l 331 44 l 331 0 l 60 0 l 60 44 l 153 44 l 153 630 l 60 630 l 60 674 l 331 674 l 331 630 l 238 630 z"},"H":{"x_min":0,"x_max":882,"ha":882,"o":"m 60 0 l 60 44 l 153 44 l 153 630 l 60 630 l 60 674 l 331 674 l 331 630 l 238 630 l 238 382 l 644 382 l 644 630 l 551 630 l 551 674 l 822 674 l 822 630 l 729 630 l 729 44 l 822 44 l 822 0 l 551 0 l 551 44 l 644 44 l 644 335 l 238 335 l 238 44 l 331 44 l 331 0 z"},"4":{"x_min":0,"x_max":556,"ha":556,"o":"m 322 218 l 322 534 l 119 218 z m 234 0 l 234 42 l 322 42 l 322 162 l 34 162 l 34 174 l 354 671 l 401 671 l 401 218 l 489 218 l 489 162 l 401 162 l 401 42 l 489 42 l 489 0 z"},"~":{"x_min":0,"x_max":833,"ha":833,"o":"m 747 370 l 747 306 q 698 271 651 253 q 604 236 558 236 q 537 236 514 240 q 491 245 465 253 q 450 258 422 268 q 324 303 275 303 q 234 303 190 285 q 146 267 87 225 l 87 290 q 138 326 186 343 q 233 361 276 361 q 303 361 333 355 q 362 349 418 329 q 424 327 435 323 q 515 294 559 294 q 601 294 645 312 q 689 330 747 370 z"},"D":{"x_min":0,"x_max":789,"ha":789,"o":"m 239 44 l 338 44 q 480 44 557 120 q 634 196 634 336 q 634 476 557 553 q 479 629 338 630 l 239 630 z m 60 0 l 60 44 l 153 44 l 153 630 l 60 630 l 60 674 l 337 674 q 525 674 631 585 q 736 496 736 337 q 736 178 631 89 q 525 0 337 0 z"},"^":{"x_min":0,"x_max":1000,"ha":1000,"o":"m 456 714 l 543 714 l 797 438 l 752 438 l 499 651 l 245 438 l 201 438 z"},"0":{"x_min":0,"x_max":556,"ha":556,"o":"m 278 30 q 343 30 376 106 q 409 182 409 331 q 409 480 376 556 q 343 632 278 632 q 213 632 180 556 q 147 480 147 331 q 147 182 180 106 q 213 30 278 30 z m 278 -9 q 172 -9 111 82 q 50 172 50 331 q 50 490 111 580 q 172 671 278 671 q 384 671 445 580 q 506 489 506 331 q 506 172 445 82 q 384 -9 278 -9 z"},"F":{"x_min":0,"x_max":627,"ha":627,"o":"m 60 0 l 60 44 l 153 44 l 153 630 l 60 630 l 60 674 l 594 674 l 594 537 l 538 537 l 538 618 l 238 618 l 238 379 l 488 379 l 488 456 l 544 456 l 544 259 l 488 259 l 488 335 l 238 335 l 238 44 l 336 44 l 336 0 z"},"`":{"x_min":0,"x_max":500,"ha":500,"o":"m 317 531 l 265 531 l 128 701 l 215 701 z"},"k":{"x_min":0,"x_max":572,"ha":572,"o":"m 190 229 l 384 428 l 311 428 l 311 468 l 538 468 l 538 428 l 449 428 l 304 282 l 504 39 l 576 39 l 576 0 l 335 0 l 335 39 l 406 39 l 249 228 l 190 169 l 190 39 l 271 39 l 271 0 l 30 0 l 30 39 l 111 39 l 111 634 l 30 634 l 30 674 l 190 683 z"},"u":{"x_min":0,"x_max":611,"ha":611,"o":"m 498 468 l 498 39 l 579 39 l 579 0 l 419 0 l 419 70 q 392 31 352 11 q 312 -9 260 -9 q 181 -9 146 31 q 111 71 111 162 l 111 428 l 30 428 l 30 468 l 190 468 l 190 180 q 190 102 212 71 q 234 41 287 41 q 353 41 386 82 q 419 124 419 205 l 419 428 l 338 428 l 338 468 z"},"]":{"x_min":0,"x_max":352,"ha":352,"o":"m 219 723 l 219 -159 l 52 -159 l 52 -119 l 138 -119 l 138 683 l 52 683 l 52 723 z"},"U":{"x_min":0,"x_max":806,"ha":806,"o":"m 144 630 l 51 630 l 51 674 l 317 674 l 317 630 l 229 630 l 229 313 q 229 222 236 180 q 243 138 260 111 q 284 73 325 54 q 366 35 425 35 q 483 35 524 54 q 565 73 589 111 q 606 138 613 180 q 620 222 620 313 l 620 630 l 532 630 l 532 674 l 763 674 l 763 630 l 670 630 l 670 295 q 670 194 659 150 q 648 106 623 75 q 589 33 535 12 q 481 -9 408 -9 q 334 -9 280 13 q 225 34 190 76 q 165 106 155 148 q 144 190 144 294 l 144 306 z"},"o":{"x_min":0,"x_max":546,"ha":546,"o":"m 273 25 q 339 25 374 78 q 409 132 409 234 q 409 335 374 389 q 339 442 273 442 q 207 442 172 389 q 137 336 137 234 q 137 131 172 78 q 207 25 273 25 z m 273 -9 q 167 -9 106 57 q 44 122 44 234 q 44 341 108 409 q 173 477 273 477 q 378 477 440 412 q 502 346 502 234 q 502 127 438 59 q 373 -9 273 -9 z"},"N":{"x_min":0,"x_max":856,"ha":856,"o":"m 51 0 l 51 44 l 139 44 l 139 630 l 51 630 l 51 674 l 208 674 l 676 154 l 676 630 l 588 630 l 588 674 l 813 674 l 813 630 l 725 630 l 725 -7 l 705 -7 l 188 564 l 188 44 l 276 44 l 276 0 z"},"+":{"x_min":0,"x_max":833,"ha":833,"o":"m 388 596 l 446 596 l 446 327 l 709 327 l 709 270 l 446 270 l 446 0 l 388 0 l 388 270 l 124 270 l 124 327 l 388 327 z"},"G":{"x_min":0,"x_max":801,"ha":801,"o":"m 735 0 l 708 0 l 673 73 q 625 32 563 11 q 501 -9 424 -9 q 256 -9 155 87 q 53 183 53 340 q 53 494 154 588 q 254 683 418 683 q 496 683 557 664 q 618 646 660 609 l 660 673 l 716 673 l 716 491 l 660 491 q 659 559 596 599 q 533 639 426 639 q 300 639 227 559 q 154 479 154 341 q 154 202 230 117 q 307 32 431 32 q 497 32 552 56 q 608 79 650 125 l 650 264 l 534 264 l 534 308 l 735 308 z"},"q":{"x_min":0,"x_max":595,"ha":595,"o":"m 405 79 q 379 35 340 13 q 300 -9 246 -9 q 154 -9 99 56 q 44 122 44 232 q 44 343 102 410 q 160 477 255 477 q 302 477 341 459 q 379 442 405 409 l 438 468 l 567 468 l 567 428 l 484 428 l 484 -174 l 572 -174 l 572 -213 l 317 -213 l 317 -174 l 405 -174 z m 405 211 l 405 326 q 405 370 368 401 q 331 431 280 431 q 209 431 172 382 q 135 332 135 237 q 135 137 169 86 q 203 35 269 35 q 334 35 370 81 q 405 126 405 211 z"},"d":{"x_min":0,"x_max":595,"ha":595,"o":"m 405 211 l 405 256 q 405 341 370 386 q 334 432 269 432 q 203 432 169 382 q 135 332 135 234 q 135 136 169 86 q 203 35 269 35 q 334 35 370 81 q 405 126 405 211 z m 405 634 l 321 634 l 321 674 l 484 683 l 484 39 l 555 39 l 555 0 l 405 0 l 405 79 q 379 35 340 13 q 300 -9 246 -9 q 156 -9 100 59 q 44 126 44 235 q 44 342 100 410 q 157 477 246 477 q 299 477 339 455 q 379 433 405 389 z"},"1":{"x_min":0,"x_max":556,"ha":556,"o":"m 149 0 l 149 42 l 258 42 l 258 576 q 232 553 203 530 q 174 506 142 484 l 113 518 q 155 554 199 592 q 244 630 290 671 l 339 671 l 339 42 l 455 42 l 455 0 z"},"5":{"x_min":0,"x_max":556,"ha":556,"o":"m 119 156 l 119 151 q 119 94 151 62 q 182 29 237 29 q 306 29 349 83 q 392 138 392 227 q 392 306 351 349 q 309 392 234 392 q 206 392 174 381 q 143 370 110 348 l 94 360 l 186 662 l 472 662 l 453 598 l 218 598 l 160 412 q 188 427 215 434 q 242 441 269 441 q 370 441 429 384 q 488 328 488 231 q 488 125 420 58 q 352 -9 243 -9 q 145 -9 90 35 q 36 78 35 156 z"}}}
